<?xml version="1.0" encoding="UTF-8"?>
<!DOCTYPE svg PUBLIC "-//W3C//DTD SVG 1.1//EN" "http://www.w3.org/Graphics/SVG/1.1/DTD/svg11.dtd">
<svg xmlns="http://www.w3.org/2000/svg" version="1.1" width="1000px" height="1000px" style="shape-rendering:geometricPrecision; text-rendering:geometricPrecision; image-rendering:optimizeQuality; fill-rule:evenodd; clip-rule:evenodd" xmlns:xlink="http://www.w3.org/1999/xlink">
<g><path style="opacity:0.865" fill="#fefffe" d="M 437.5,149.5 C 540.706,141.557 629.706,170.224 704.5,235.5C 726.901,256.006 746.735,278.672 764,303.5C 764.617,304.449 764.451,305.282 763.5,306C 757.167,306.667 750.833,306.667 744.5,306C 745.167,305.667 745.833,305.333 746.5,305C 743.167,304.667 739.833,304.333 736.5,304C 664.213,209.91 567.546,166.244 446.5,173C 340.367,185.2 257.701,236.533 198.5,327C 198.833,327.333 199.167,327.667 199.5,328C 196.201,331.948 193.201,336.115 190.5,340.5C 189.833,340.833 189.167,341.167 188.5,341.5C 182.331,338.064 175.664,336.397 168.5,336.5C 169.25,331.756 171.25,327.59 174.5,324C 234.083,224.476 321.75,166.309 437.5,149.5 Z"/></g>
<g><path style="opacity:0.953" fill="#fefffe" d="M 461.5,353.5 C 481.18,353.242 500.846,353.576 520.5,354.5C 548.239,358.081 572.239,368.415 592.5,385.5C 615.836,407.183 628.17,434.517 629.5,467.5C 603.856,468.975 578.19,469.975 552.5,470.5C 551.146,441.304 536.146,423.471 507.5,417C 488.203,414.223 469.37,415.723 451,421.5C 434.582,430.327 428.082,443.327 431.5,460.5C 433.696,469.704 438.696,477.037 446.5,482.5C 465.015,493.559 484.349,502.892 504.5,510.5C 504.719,511.675 504.386,512.675 503.5,513.5C 481.859,530.306 460.359,547.306 439,564.5C 422.432,557.314 405.599,547.981 388.5,536.5C 365.717,516.839 354.384,492.005 354.5,462C 355.907,422.806 372.574,392.806 404.5,372C 408.737,369.714 413.07,367.714 417.5,366C 417.167,365.667 416.833,365.333 416.5,365C 431.282,359.949 446.282,356.115 461.5,353.5 Z"/></g>
<g><path style="opacity:0.961" fill="#fefffe" d="M 59.5,359.5 C 146.833,359.5 234.167,359.5 321.5,359.5C 319.64,366.348 318.473,373.348 318,380.5C 317.667,380.167 317.333,379.833 317,379.5C 314.943,394.277 311.776,408.777 307.5,423C 246.5,423.333 185.5,423.667 124.5,424C 125.059,424.725 125.392,425.558 125.5,426.5C 119.261,454.156 112.927,481.822 106.5,509.5C 166.496,510.5 226.496,510.833 286.5,510.5C 282.555,527.97 279.055,545.637 276,563.5C 275.667,563.167 275.333,562.833 275,562.5C 274.895,566.36 274.062,570.026 272.5,573.5C 212.837,574.5 153.17,574.833 93.5,574.5C 90.0119,593.129 86.5119,611.795 83,630.5C 82.4387,631.022 81.772,631.355 81,631.5C 62.2984,614.006 42.7984,596.672 22.5,579.5C 20.078,576.756 17.7447,574.089 15.5,571.5C 30.2321,500.655 44.8987,429.988 59.5,359.5 Z"/></g>
<g><path style="opacity:0.96" fill="#fefffe" d="M 695.5,359.5 C 793.5,359.5 891.5,359.5 989.5,359.5C 986.276,380.73 981.942,401.73 976.5,422.5C 940.84,423.5 905.173,423.833 869.5,423.5C 851.493,511.7 833.16,599.867 814.5,688C 813.41,690.06 811.743,691.393 809.5,692C 789.805,704.324 769.138,717.324 747.5,731C 740.842,731.5 734.175,731.666 727.5,731.5C 727.55,727.812 727.884,724.145 728.5,720.5C 735.627,687.31 742.461,653.976 749,620.5C 751.199,614.52 753.032,608.353 754.5,602C 753.919,601.107 753.585,600.107 753.5,599C 755.34,591.642 757.34,584.309 759.5,577C 758.978,576.439 758.645,575.772 758.5,575C 765.969,544.464 772.803,513.631 779,482.5C 781.327,469.246 783.661,455.913 786,442.5C 788.199,436.462 790.032,430.296 791.5,424C 755.502,423.5 719.502,423.333 683.5,423.5C 684.983,415.236 686.149,406.902 687,398.5C 687.333,398.833 687.667,399.167 688,399.5C 690.179,386.027 692.679,372.694 695.5,359.5 Z"/></g>
<g><path style="opacity:0.954" fill="#fefffe" d="M 592.5,669.5 C 581.25,690.908 565.417,707.241 545,718.5C 525.77,728.957 505.27,735.457 483.5,738C 450.604,741.318 418.604,738.151 387.5,728.5C 341.055,712.817 315.222,680.15 310,630.5C 309.5,623.508 309.334,616.508 309.5,609.5C 326.712,608.167 344.045,607 361.5,606C 369.167,605.333 376.833,605.333 384.5,606C 385.69,613.075 386.523,620.241 387,627.5C 389.117,646.437 398.95,659.437 416.5,666.5C 444.343,674.447 471.343,674.447 497.5,666.5C 502.231,664.065 506.898,661.565 511.5,659C 511.167,658.667 510.833,658.333 510.5,658C 515.203,655.038 518.87,651.204 521.5,646.5C 526.324,638.348 527.491,629.348 525,619.5C 523.036,613.076 519.702,607.409 515,602.5C 509.696,597.863 503.863,594.03 497.5,591C 480.996,583.369 464.329,576.036 447.5,569C 446.978,568.439 446.645,567.772 446.5,567C 447.941,565.055 449.607,563.221 451.5,561.5C 469.827,547.175 488.16,532.841 506.5,518.5C 509.467,515.84 512.8,515.174 516.5,516.5C 535.414,524.607 553.414,534.44 570.5,546C 597.177,568.043 608.344,596.543 604,631.5C 602.316,644.935 598.482,657.602 592.5,669.5 Z"/></g>
<g><path style="opacity:0.004" fill="#fefffe" d="M 521.5,646.5 C 520.833,645.167 520.833,645.167 521.5,646.5 Z"/></g>
<g><path style="opacity:0.004" fill="#fefffe" d="M 592.5,669.5 C 593.833,670.167 593.833,670.167 592.5,669.5 Z"/></g>
<g><path style="opacity:0.866" fill="#fefffe" d="M 639.5,803.5 C 641.179,803.715 642.179,803.048 642.5,801.5C 644.308,801.509 645.975,801.009 647.5,800C 656.062,794.077 665.062,787.744 674.5,781C 682.062,774.725 689.395,768.225 696.5,761.5C 707.177,760.78 717.843,759.78 728.5,758.5C 728.5,760.167 728.5,761.833 728.5,763.5C 726.567,763.729 724.9,764.562 723.5,766C 647.015,845.31 551.682,880.31 437.5,871C 346.627,859.784 271.46,819.618 212,750.5C 209.833,748.184 208.833,745.517 209,742.5C 209.414,742.957 209.914,743.291 210.5,743.5C 215.398,741.276 220.064,738.609 224.5,735.5C 226.167,734.167 227.833,734.167 229.5,735.5C 288.021,801.523 360.355,839.023 446.5,848C 507.626,852.833 565.459,842 620,815.5C 626.987,811.956 633.487,807.956 639.5,803.5 Z M 609.5,798.5 C 611.59,798.45 612.923,799.45 613.5,801.5C 612.162,805.506 610.162,809.173 607.5,812.5C 606.634,808.443 606.634,804.61 607.5,801C 608.756,800.583 609.423,799.75 609.5,798.5 Z M 642.5,801.5 C 642.179,803.048 641.179,803.715 639.5,803.5C 639.973,802.094 640.973,801.427 642.5,801.5 Z M 531.5,820.5 C 532.283,822.343 532.95,824.343 533.5,826.5C 536.465,827.651 539.131,829.318 541.5,831.5C 540.667,831.833 539.833,832.167 539,832.5C 535.993,831.021 532.826,830.354 529.5,830.5C 529.5,831.5 529.5,832.5 529.5,833.5C 526.86,833.553 524.36,834.22 522,835.5C 521.167,835.167 520.333,834.833 519.5,834.5C 522.833,831.167 526.167,827.833 529.5,824.5C 530.63,823.378 531.297,822.044 531.5,820.5 Z M 545.5,822.5 C 543.25,822.819 541.25,822.319 539.5,821C 541.989,820.059 543.989,820.559 545.5,822.5 Z M 430.5,823.5 C 432.167,823.5 433.833,823.5 435.5,823.5C 435.665,826.518 435.498,829.518 435,832.5C 431.25,836.348 429.083,835.348 428.5,829.5C 428.87,827.333 429.537,825.333 430.5,823.5 Z M 521.5,823.5 C 517.516,828.103 513.849,832.436 510.5,836.5C 506.5,837.833 502.5,837.833 498.5,836.5C 498.833,835.833 499.167,835.167 499.5,834.5C 503.465,833.863 507.298,832.863 511,831.5C 511.667,829.833 511.667,828.167 511,826.5C 507.545,827.791 504.045,827.791 500.5,826.5C 507.26,824.018 514.26,823.018 521.5,823.5 Z M 453.5,825.5 C 455.288,825.215 456.955,825.548 458.5,826.5C 456.956,828.446 454.956,828.946 452.5,828C 453.252,827.329 453.586,826.496 453.5,825.5 Z"/></g>
<g><path style="opacity:0.183" fill="#fefffe" d="M 709.5,748.5 C 710.833,748.5 712.167,748.5 713.5,748.5C 713.579,749.93 713.246,751.264 712.5,752.5C 709.456,754.504 706.456,756.504 703.5,758.5C 702.355,757.224 702.355,755.891 703.5,754.5C 705.576,752.485 707.576,750.485 709.5,748.5 Z"/></g>
<g><path style="opacity:0.591" fill="#fefffe" d="M 642.5,801.5 C 640.973,801.427 639.973,802.094 639.5,803.5C 637.856,803.714 636.356,803.38 635,802.5C 633.94,805.666 631.773,807.666 628.5,808.5C 627.749,807.624 627.249,806.624 627,805.5C 626.506,807.134 626.34,808.801 626.5,810.5C 624.519,811.348 622.519,811.848 620.5,812C 619.736,809.931 619.236,807.764 619,805.5C 618.798,807.256 618.298,808.922 617.5,810.5C 615.167,812.167 613.167,814.167 611.5,816.5C 601.395,821.079 596.729,817.746 597.5,806.5C 594.495,808.894 591.661,808.894 589,806.5C 585.063,810.465 583.897,815.131 585.5,820.5C 588.493,816.392 592.493,814.059 597.5,813.5C 597.324,817.033 595.991,820.033 593.5,822.5C 579.979,830.349 574.645,826.349 577.5,810.5C 581.169,802.597 587.169,799.597 595.5,801.5C 596.48,802.981 597.647,804.315 599,805.5C 601.085,797.75 606.085,793.083 614,791.5C 615.5,791.833 617,792.167 618.5,792.5C 619.262,796.111 619.762,799.778 620,803.5C 620.888,797.844 621.721,792.177 622.5,786.5C 625.359,784.949 628.359,783.949 631.5,783.5C 631.523,785.927 632.023,788.26 633,790.5C 633.517,787.08 634.35,783.747 635.5,780.5C 636.893,779.137 638.559,778.304 640.5,778C 640.167,777.667 639.833,777.333 639.5,777C 641.813,776.338 644.146,775.838 646.5,775.5C 644.802,784.115 643.469,792.782 642.5,801.5 Z M 609.5,798.5 C 609.423,799.75 608.756,800.583 607.5,801C 606.634,804.61 606.634,808.443 607.5,812.5C 610.162,809.173 612.162,805.506 613.5,801.5C 612.923,799.45 611.59,798.45 609.5,798.5 Z"/></g>
<g><path style="opacity:0.618" fill="#fefffe" d="M 312.5,776.5 C 314.086,777.675 315.586,779.009 317,780.5C 317.333,780.167 317.667,779.833 318,779.5C 318.333,782.5 318.667,785.5 319,788.5C 320.438,787.1 321.271,785.433 321.5,783.5C 324.308,783.693 326.975,784.36 329.5,785.5C 329.334,789.846 329.501,794.179 330,798.5C 331.09,795.061 332.256,791.727 333.5,788.5C 336.947,790.09 340.613,791.09 344.5,791.5C 344.334,795.514 344.501,799.514 345,803.5C 346.47,800.204 348.637,797.537 351.5,795.5C 357.443,796.117 360.11,799.451 359.5,805.5C 360.135,803.217 361.468,801.551 363.5,800.5C 366.761,800.879 369.761,801.879 372.5,803.5C 373.321,806.447 373.821,809.447 374,812.5C 375.164,810.351 376.33,808.185 377.5,806C 380.575,805.861 383.575,806.361 386.5,807.5C 386.335,810.518 386.502,813.518 387,816.5C 387.614,812.921 389.448,810.254 392.5,808.5C 394.334,809.754 396.334,810.421 398.5,810.5C 396.567,816.674 393.9,822.007 390.5,826.5C 390.667,826.833 390.833,827.167 391,827.5C 391.689,826.643 392.522,825.977 393.5,825.5C 394.85,826.95 396.516,827.617 398.5,827.5C 398.5,829.5 398.5,831.5 398.5,833.5C 395.833,833.5 393.167,833.5 390.5,833.5C 390.785,831.712 390.452,830.045 389.5,828.5C 388.571,829.689 388.238,831.022 388.5,832.5C 384.823,832.848 382.156,832.182 380.5,830.5C 380.666,826.154 380.499,821.821 380,817.5C 378.965,820.865 377.131,823.698 374.5,826C 374.833,826.333 375.167,826.667 375.5,827C 372.571,827.777 369.737,827.61 367,826.5C 366.667,821.167 366.333,815.833 366,810.5C 364.26,813.889 362.427,817.222 360.5,820.5C 357.833,823.167 355.167,823.167 352.5,820.5C 351.833,817.167 351.167,813.833 350.5,810.5C 349.35,812.609 348.016,814.609 346.5,816.5C 345.667,816.833 344.833,817.167 344,817.5C 342.2,816.622 340.367,815.955 338.5,815.5C 338.666,809.824 338.499,804.157 338,798.5C 335.991,802.013 334.325,805.679 333,809.5C 330.287,810.989 327.787,810.656 325.5,808.5C 324.673,804.541 324.173,800.541 324,796.5C 322.27,799.598 320.437,802.598 318.5,805.5C 316.5,804.167 314.5,802.833 312.5,801.5C 311.199,793.108 311.199,784.775 312.5,776.5 Z"/></g>
<g><path style="opacity:0.556" fill="#fefffe" d="M 564.5,828.5 C 563.069,829.78 562.402,831.447 562.5,833.5C 559.951,833.387 557.618,834.054 555.5,835.5C 555.167,834.833 554.833,834.167 554.5,833.5C 556.153,828.36 557.153,823.027 557.5,817.5C 555.379,817.675 553.379,817.341 551.5,816.5C 551.833,814.5 552.167,812.5 552.5,810.5C 559.149,809.175 565.816,807.842 572.5,806.5C 572.995,811.691 570.662,814.191 565.5,814C 566.059,814.725 566.392,815.558 566.5,816.5C 564.804,820.317 564.137,824.317 564.5,828.5 Z"/></g>
<g><path style="opacity:0.577" fill="#fefffe" d="M 403.5,812.5 C 409.353,812.703 415.02,813.703 420.5,815.5C 420.5,817.167 420.5,818.833 420.5,820.5C 417.223,820.784 414.057,820.451 411,819.5C 410.517,820.448 410.351,821.448 410.5,822.5C 413.5,822.5 416.5,822.5 419.5,822.5C 419.167,824.5 418.833,826.5 418.5,828.5C 415.119,828.54 411.786,828.207 408.5,827.5C 408.665,830.518 408.498,833.518 408,836.5C 407.107,837.081 406.107,837.415 405,837.5C 403.891,836.495 402.391,835.828 400.5,835.5C 400.729,828.485 401.229,821.485 402,814.5C 402.333,814.833 402.667,815.167 403,815.5C 403.483,814.552 403.649,813.552 403.5,812.5 Z"/></g>
<g><path style="opacity:0.575" fill="#fefffe" d="M 551.5,816.5 C 552.5,821.5 550.5,823.5 545.5,822.5C 549.967,826.162 550.634,830.495 547.5,835.5C 546.205,836.689 544.205,837.522 541.5,838C 537.463,838.607 533.463,838.44 529.5,837.5C 529.5,838.5 529.5,839.5 529.5,840.5C 522.638,841.505 515.805,842.505 509,843.5C 502.651,843.384 496.151,843.384 489.5,843.5C 490.221,840.183 490.388,836.849 490,833.5C 489.091,836.513 488.258,839.513 487.5,842.5C 481.811,843.67 476.144,843.67 470.5,842.5C 469.667,841.5 468.833,840.5 468,839.5C 465.906,824.927 472.072,818.761 486.5,821C 489.479,822.612 490.812,825.112 490.5,828.5C 487.022,828.816 483.688,828.316 480.5,827C 480.833,826.667 481.167,826.333 481.5,826C 480.5,825.333 479.5,825.333 478.5,826C 478.833,826.333 479.167,826.667 479.5,827C 478.234,827.309 477.067,827.809 476,828.5C 475.333,831.5 475.333,834.5 476,837.5C 478.319,838.296 480.486,837.796 482.5,836C 480.866,835.506 479.199,835.34 477.5,835.5C 477.48,833.857 478.147,832.524 479.5,831.5C 483.732,830.637 487.899,829.637 492,828.5C 492.212,825.242 492.712,822.076 493.5,819C 496.667,818.833 499.833,818.667 503,818.5C 506.603,818.55 509.936,819.217 513,820.5C 513.374,819.584 513.874,818.75 514.5,818C 520.669,817.621 526.669,816.787 532.5,815.5C 532.281,816.675 532.614,817.675 533.5,818.5C 536.057,815.356 539.39,813.689 543.5,813.5C 546.629,813.638 549.296,814.638 551.5,816.5 Z M 531.5,820.5 C 531.297,822.044 530.63,823.378 529.5,824.5C 526.167,827.833 522.833,831.167 519.5,834.5C 520.333,834.833 521.167,835.167 522,835.5C 524.36,834.22 526.86,833.553 529.5,833.5C 529.5,832.5 529.5,831.5 529.5,830.5C 532.826,830.354 535.993,831.021 539,832.5C 539.833,832.167 540.667,831.833 541.5,831.5C 539.131,829.318 536.465,827.651 533.5,826.5C 532.95,824.343 532.283,822.343 531.5,820.5 Z M 545.5,822.5 C 543.989,820.559 541.989,820.059 539.5,821C 541.25,822.319 543.25,822.819 545.5,822.5 Z M 521.5,823.5 C 514.26,823.018 507.26,824.018 500.5,826.5C 504.045,827.791 507.545,827.791 511,826.5C 511.667,828.167 511.667,829.833 511,831.5C 507.298,832.863 503.465,833.863 499.5,834.5C 499.167,835.167 498.833,835.833 498.5,836.5C 502.5,837.833 506.5,837.833 510.5,836.5C 513.849,832.436 517.516,828.103 521.5,823.5 Z"/></g>
<g><path style="opacity:0.619" fill="#fefffe" d="M 427.5,817.5 C 438.364,815.324 443.864,819.657 444,830.5C 445.354,826.637 445.854,822.637 445.5,818.5C 450.544,818.173 455.544,818.506 460.5,819.5C 462.193,820.228 463.693,821.228 465,822.5C 465.824,825.882 465.657,829.216 464.5,832.5C 463.069,832.977 461.736,833.643 460.5,834.5C 462.721,836.693 464.054,839.36 464.5,842.5C 458.957,844.956 455.79,843.289 455,837.5C 453.334,838.34 453.167,837.84 454.5,836C 451.768,835.095 451.101,835.762 452.5,838C 451.115,839.597 450.449,841.43 450.5,843.5C 447.833,843.167 445.167,842.833 442.5,842.5C 443.135,839.507 443.301,836.507 443,833.5C 442.261,836.573 440.428,838.74 437.5,840C 423.826,842.494 418.493,836.994 421.5,823.5C 422.901,820.766 424.901,818.766 427.5,817.5 Z M 430.5,823.5 C 429.537,825.333 428.87,827.333 428.5,829.5C 429.083,835.348 431.25,836.348 435,832.5C 435.498,829.518 435.665,826.518 435.5,823.5C 433.833,823.5 432.167,823.5 430.5,823.5 Z M 453.5,825.5 C 453.586,826.496 453.252,827.329 452.5,828C 454.956,828.946 456.956,828.446 458.5,826.5C 456.955,825.548 455.288,825.215 453.5,825.5 Z"/></g>
<g><path style="opacity:0.394" fill="#fefffe" d="M 564.5,828.5 C 566.213,827.365 566.88,825.698 566.5,823.5C 569.206,823.425 571.873,823.092 574.5,822.5C 574.338,829.092 571.004,832.425 564.5,832.5C 564.5,831.167 564.5,829.833 564.5,828.5 Z"/></g>
<g><path style="opacity:0.004" fill="#fefffe" d="M 431.5,841.5 C 432.833,842.167 432.833,842.167 431.5,841.5 Z"/></g>
</svg>
